<?xml version="1.0" standalone="no"?>
<!DOCTYPE svg PUBLIC "-//W3C//DTD SVG 20010904//EN"
 "http://www.w3.org/TR/2001/REC-SVG-20010904/DTD/svg10.dtd">
<svg version="1.0" xmlns="http://www.w3.org/2000/svg"
 width="200.000000pt" height="200.000000pt" viewBox="0 0 200.000000 200.000000"
 preserveAspectRatio="xMidYMid meet">
<metadata>
Created by potrace 1.14, written by Peter Selinger 2001-2017
</metadata>
<g transform="translate(0.000000,200.000000) scale(0.100000,-0.100000)"
fill="#000000" stroke="none">
<path d="M662 1974 c-30 -15 -63 -41 -74 -58 -12 -18 -43 -43 -72 -57 -71 -34
-89 -73 -94 -206 -4 -86 -7 -103 -22 -108 -9 -3 -22 -16 -28 -29 -21 -48 2
-119 59 -177 20 -20 33 -47 39 -80 9 -49 37 -112 71 -160 l18 -25 -42 -3
c-109 -6 -169 -66 -166 -164 l2 -57 -54 -27 c-93 -45 -160 -105 -220 -197 -57
-86 -79 -167 -79 -286 l0 -97 617 -1 c340 0 630 -1 644 -1 21 -1 30 -10 45
-43 25 -56 108 -138 169 -168 44 -22 64 -25 160 -25 100 0 115 2 161 27 71 37
141 108 172 176 24 50 27 69 27 157 0 89 -3 106 -28 156 -35 72 -104 141 -176
176 -47 24 -70 28 -150 30 -85 2 -97 5 -120 27 -29 27 -135 86 -156 86 -10 0
-13 16 -12 58 1 41 -5 68 -19 93 -24 41 -93 79 -146 79 l-38 0 36 55 c19 31
43 87 53 126 12 47 27 80 47 102 70 75 84 138 39 182 -13 14 -28 25 -33 25 -5
0 -5 23 -2 51 15 117 -7 206 -61 238 -25 15 -26 18 -13 41 14 26 19 92 8 103
-4 4 -19 -3 -35 -14 -36 -25 -76 -26 -169 -1 -51 14 -111 20 -190 21 -106 2
-119 0 -168 -25z m224 -18 c38 -3 97 -14 130 -23 32 -10 80 -17 106 -18 50 0
50 0 4 -52 -19 -23 -19 -23 2 -23 33 0 35 -1 64 -18 36 -21 57 -75 53 -142 -1
-30 -3 -69 -4 -87 -1 -39 -45 -60 -77 -36 -13 10 -43 13 -103 12 -107 -2 -147
-11 -178 -41 -27 -25 -29 -25 -59 3 -11 11 -34 23 -51 28 -48 14 -187 11 -217
-4 -20 -11 -34 -11 -56 -3 -31 10 -34 23 -32 133 2 86 42 145 100 145 21 0 32
9 47 37 27 50 64 74 132 88 32 7 60 11 63 10 3 -2 37 -6 76 -9z m-101 -450
c17 -22 1 -67 -38 -109 -26 -28 -30 -29 -93 -25 -43 3 -69 9 -74 19 -16 25
-22 96 -11 117 10 19 19 20 107 18 78 -2 99 -6 109 -20z m365 -5 c9 -18 -4
-97 -20 -116 -12 -14 -125 -19 -150 -5 -21 11 -60 79 -60 104 0 23 19 31 90
36 88 7 129 1 140 -19z m-654 1 c5 -4 15 -36 22 -70 12 -70 24 -89 61 -103 34
-13 123 -13 163 0 34 11 83 72 94 119 11 40 37 25 66 -37 21 -45 36 -62 63
-75 46 -22 143 -23 184 -1 36 18 46 38 55 110 8 57 18 66 66 62 27 -2 36 -8
38 -24 4 -29 -23 -80 -63 -119 -24 -23 -34 -44 -40 -80 -24 -163 -190 -316
-344 -318 -146 -1 -313 150 -336 306 -5 35 -16 55 -47 84 -22 22 -46 51 -54
66 -17 33 -18 75 -1 81 19 8 61 8 73 -1z m81 -485 c4 -7 9 -30 10 -53 6 -87
58 -187 118 -224 l33 -20 -29 -31 c-16 -17 -29 -35 -29 -40 0 -24 -148 49
-205 102 -66 61 -93 138 -71 207 12 36 67 62 148 69 10 1 21 -4 25 -10z m674
-13 c14 -7 32 -20 39 -29 20 -24 21 -105 3 -144 -25 -52 -102 -121 -168 -153
-70 -33 -82 -34 -89 -10 -3 9 -17 25 -30 35 l-24 19 37 34 c46 41 87 130 95
202 3 29 8 57 11 62 7 12 93 1 126 -16z m-479 -75 c82 -24 193 -2 270 52 l28
20 0 -30 c0 -39 -27 -117 -52 -151 -27 -36 -86 -69 -140 -76 -124 -17 -223 68
-243 209 l-8 49 56 -32 c30 -17 70 -35 89 -41z m-222 -292 c30 -13 69 -29 85
-34 26 -8 30 -15 33 -52 3 -36 -1 -46 -27 -70 -59 -55 -26 -143 53 -143 82 0
116 86 56 142 -27 25 -30 34 -30 90 0 55 3 65 29 91 28 28 34 29 116 29 99 0
121 -9 140 -55 19 -43 13 -65 -24 -102 -24 -25 -29 -37 -26 -64 5 -37 44 -79
75 -79 31 0 67 20 80 45 18 34 5 89 -25 105 -47 25 -32 51 54 92 75 35 147 94
181 147 l16 24 49 -22 c27 -12 64 -33 83 -47 l33 -26 -41 -22 c-124 -66 -204
-212 -194 -350 l4 -46 -615 0 -615 0 0 53 c0 72 30 175 71 243 42 69 128 150
198 186 l52 27 67 -68 c42 -43 87 -78 122 -94z m1202 26 c67 -24 141 -92 175
-161 39 -80 40 -192 2 -272 -33 -70 -89 -126 -159 -159 -79 -37 -192 -36 -272
2 -198 96 -244 361 -88 517 90 90 219 117 342 73z m-692 -168 c18 -22 3 -55
-25 -55 -33 0 -51 33 -29 54 19 20 38 20 54 1z m-330 -65 c11 -20 -10 -50 -34
-50 -34 0 -48 52 -19 68 21 12 41 5 53 -18z"/>
<path d="M1616 373 c-81 -163 -85 -176 -69 -189 17 -12 25 2 105 159 48 95 87
175 87 179 1 4 -7 12 -18 17 -16 9 -27 -8 -105 -166z"/>
<path d="M1433 417 l-52 -52 49 -52 c27 -29 52 -53 56 -53 4 0 12 8 19 17 11
14 7 22 -23 50 l-35 34 37 38 c35 36 36 38 18 54 -17 16 -21 14 -69 -36z"/>
<path d="M1767 453 c-16 -16 -15 -19 19 -54 l36 -37 -36 -37 c-20 -20 -36 -38
-36 -41 0 -2 9 -8 20 -14 16 -8 25 -4 57 28 69 68 68 63 10 120 -50 49 -54 51
-70 35z"/>
</g>
</svg>
